ffmpeg started on 2016-12-05 at 12:17:32
Report written to "Output/x264/results/ffmpeg/sintelfaster2000k.log"
Command line:
Tools/ffmpeg/ffmpeg -benchmark -y -i Input/y4m/sintel.y4m -c:v libx264 -preset faster -b:v 2000k -an Output/x264/encoded/sintelfaster2000k.mkv
ffmpeg version N-82227-gdb23fde Copyright (c) 2000-2016 the FFmpeg developers
  built with gcc 5.4.0 (Ubuntu 5.4.0-6ubuntu1~16.04.2) 20160609
  configuration: --prefix=/home/jaroslav/ffmpeg_build --pkg-config-flags=--static --extra-cflags=-I/home/jaroslav/ffmpeg_build/include --extra-ldflags=-L/home/jaroslav/ffmpeg_build/lib --bindir=/home/jaroslav/bin --enable-gpl --enable-libass --enable-libfdk-aac --enable-libfreetype --enable-libmp3lame --enable-libopus --enable-libtheora --enable-libvorbis --enable-libvpx --enable-libx264 --enable-libx265 --enable-nvenc --enable-libmfx --enable-libxvid --enable-libgsm --enable-libopencore-amrnb --enable-version3 --enable-nonfree
  libavutil      55. 35.100 / 55. 35.100
  libavcodec     57. 66.101 / 57. 66.101
  libavformat    57. 57.100 / 57. 57.100
  libavdevice    57.  2.100 / 57.  2.100
  libavfilter     6. 66.100 /  6. 66.100
  libswscale      4.  3.100 /  4.  3.100
  libswresample   2.  4.100 /  2.  4.100
  libpostproc    54.  2.100 / 54.  2.100
Input #0, yuv4mpegpipe, from 'Input/y4m/sintel.y4m':
  Duration: 00:00:20.83, start: 0.000000, bitrate: 2057307 kb/s
    Stream #0:0: Video: rawvideo (I420 / 0x30323449), yuv420p(progressive), 4096x1744, SAR 1:1 DAR 256:109, 24 fps, 24 tbr, 24 tbn, 24 tbc
[libx264 @ 0x34641c0] using SAR=1/1
[libx264 @ 0x34641c0] using cpu capabilities: MMX2 SSE2Fast SSSE3 SSE4.2 AVX FMA3 AVX2 LZCNT BMI2
[libx264 @ 0x34641c0] profile High, level 5.1
[libx264 @ 0x34641c0] 264 - core 148 - H.264/MPEG-4 AVC codec - Copyleft 2003-2016 - http://www.videolan.org/x264.html - options: cabac=1 ref=2 deblock=1:0:0 analyse=0x3:0x113 me=hex subme=4 psy=1 psy_rd=1.00:0.00 mixed_ref=0 me_range=16 chroma_me=1 trellis=1 8x8dct=1 cqm=0 deadzone=21,11 fast_pskip=1 chroma_qp_offset=0 threads=6 lookahead_threads=1 sliced_threads=0 nr=0 decimate=1 interlaced=0 bluray_compat=0 constrained_intra=0 bframes=3 b_pyramid=2 b_adapt=1 b_bias=0 direct=1 weightb=1 open_gop=0 weightp=1 keyint=250 keyint_min=24 scenecut=40 intra_refresh=0 rc_lookahead=20 rc=abr mbtree=1 bitrate=2000 ratetol=1.0 qcomp=0.60 qpmin=0 qpmax=69 qpstep=4 ip_ratio=1.40 aq=1:1.00
Output #0, matroska, to 'Output/x264/encoded/sintelfaster2000k.mkv':
  Metadata:
    encoder         : Lavf57.57.100
    Stream #0:0: Video: h264 (libx264) (H264 / 0x34363248), yuv420p, 4096x1744 [SAR 1:1 DAR 256:109], q=-1--1, 2000 kb/s, 24 fps, 1k tbn, 24 tbc
    Metadata:
      encoder         : Lavc57.66.101 libx264
    Side data:
      cpb: bitrate max/min/avg: 0/0/2000000 buffer size: 0 vbv_delay: -1
Stream mapping:
  Stream #0:0 -> #0:0 (rawvideo (native) -> h264 (libx264))
Press [q] to stop, [?] for help
frame=   10 fps=0.0 q=0.0 size=       0kB time=00:00:00.00 bitrate=N/A speed=   0x    frame=   19 fps= 19 q=0.0 size=       0kB time=00:00:00.00 bitrate=N/A speed=   0x    frame=   27 fps= 11 q=0.0 size=       0kB time=00:00:00.00 bitrate=N/A speed=   0x    frame=   35 fps= 11 q=42.0 size=       1kB time=00:00:00.08 bitrate=  69.8kbits/s speed=0.026x    frame=   39 fps=5.5 q=56.0 size=       1kB time=00:00:00.25 bitrate=  23.4kbits/s speed=0.0354x    frame=   40 fps=3.7 q=56.0 size=       1kB time=00:00:00.29 bitrate=  20.0kbits/s speed=0.0271x    frame=   41 fps=3.3 q=56.0 size=       1kB time=00:00:00.33 bitrate=  17.6kbits/s speed=0.0268x    frame=   51 fps=3.9 q=60.0 size=       1kB time=00:00:00.75 bitrate=   7.8kbits/s speed=0.0575x    frame=   59 fps=4.3 q=60.0 size=       1kB time=00:00:01.08 bitrate=   5.4kbits/s speed=0.0799x    frame=   67 fps=4.7 q=60.0 size=       1kB time=00:00:01.41 bitrate=   4.1kbits/s speed= 0.1x    frame=   75 fps=5.1 q=59.0 size=       1kB time=00:00:01.75 bitrate=   3.3kbits/s speed=0.119x    frame=   83 fps=5.5 q=59.0 size=       1kB time=00:00:02.08 bitrate=   2.8kbits/s speed=0.137x    frame=   90 fps=5.7 q=59.0 size=       1kB time=00:00:02.37 bitrate=   2.5kbits/s speed=0.151x    frame=   98 fps=6.0 q=59.0 size=       1kB time=00:00:02.70 bitrate=   2.2kbits/s speed=0.166x    frame=  105 fps=6.3 q=59.0 size=       1kB time=00:00:03.00 bitrate=   2.0kbits/s speed=0.179x    frame=  112 fps=6.5 q=59.0 size=       1kB time=00:00:03.29 bitrate=   1.8kbits/s speed=0.19x    frame=  119 fps=6.7 q=59.0 size=       1kB time=00:00:03.58 bitrate=   1.6kbits/s speed=0.201x    frame=  126 fps=6.9 q=59.0 size=       1kB time=00:00:03.87 bitrate=   1.5kbits/s speed=0.211x    frame=  134 fps=7.1 q=59.0 size=    1251kB time=00:00:04.20 bitrate=2434.9kbits/s speed=0.223x    frame=  141 fps=7.3 q=56.0 size=    1251kB time=00:00:04.50 bitrate=2276.9kbits/s speed=0.232x    frame=  149 fps=7.5 q=59.0 size=    1251kB time=00:00:04.83 bitrate=2120.1kbits/s speed=0.242x    frame=  157 fps=7.7 q=59.0 size=    1251kB time=00:00:05.16 bitrate=1983.0kbits/s speed=0.252x    frame=  164 fps=7.8 q=59.0 size=    1251kB time=00:00:05.45 bitrate=1877.3kbits/s speed=0.26x    frame=  172 fps=8.0 q=59.0 size=    1251kB time=00:00:05.79 bitrate=1769.1kbits/s speed=0.269x    frame=  180 fps=8.2 q=60.0 size=    1251kB time=00:00:06.12 bitrate=1672.9kbits/s speed=0.278x    frame=  187 fps=8.3 q=60.0 size=    1849kB time=00:00:06.41 bitrate=2360.4kbits/s speed=0.284x    frame=  195 fps=8.4 q=59.0 size=    1849kB time=00:00:06.75 bitrate=2244.0kbits/s speed=0.292x    frame=  203 fps=8.6 q=59.0 size=    1849kB time=00:00:07.08 bitrate=2138.5kbits/s speed=0.299x    frame=  210 fps=8.6 q=59.0 size=    1849kB time=00:00:07.37 bitrate=2053.8kbits/s speed=0.303x    frame=  218 fps=8.8 q=59.0 size=    2070kB time=00:00:07.70 bitrate=2199.4kbits/s speed=0.31x    frame=  225 fps=8.9 q=59.0 size=    2070kB time=00:00:08.00 bitrate=2119.1kbits/s speed=0.316x    frame=  233 fps=9.0 q=59.0 size=    2070kB time=00:00:08.33 bitrate=2034.5kbits/s speed=0.322x    frame=  242 fps=9.2 q=58.0 size=    2070kB time=00:00:08.70 bitrate=1946.9kbits/s speed=0.33x    frame=  250 fps=9.3 q=58.0 size=    2070kB time=00:00:09.04 bitrate=1875.0kbits/s speed=0.335x    frame=  259 fps=9.4 q=58.0 size=    2070kB time=00:00:09.41 bitrate=1800.3kbits/s speed=0.342x    frame=  267 fps=9.5 q=58.0 size=    2070kB time=00:00:09.75 bitrate=1738.8kbits/s speed=0.348x    frame=  274 fps=9.6 q=58.0 size=    2070kB time=00:00:10.04 bitrate=1688.3kbits/s speed=0.352x    frame=  283 fps=9.7 q=58.0 size=    2070kB time=00:00:10.41 bitrate=1627.5kbits/s speed=0.358x    frame=  288 fps=9.6 q=57.0 size=    2070kB time=00:00:10.62 bitrate=1595.6kbits/s speed=0.355x    frame=  301 fps=9.9 q=57.0 size=    2686kB time=00:00:11.16 bitrate=1970.2kbits/s speed=0.366x    frame=  312 fps= 10 q=57.0 size=    2686kB time=00:00:11.62 bitrate=1892.6kbits/s speed=0.375x    frame=  321 fps= 10 q=56.0 size=    2686kB time=00:00:12.00 bitrate=1833.4kbits/s speed=0.38x    frame=  333 fps= 10 q=56.0 size=    2686kB time=00:00:12.50 bitrate=1760.1kbits/s speed=0.389x    frame=  345 fps= 11 q=55.0 size=    2686kB time=00:00:13.00 bitrate=1692.4kbits/s speed=0.397x    frame=  357 fps= 11 q=55.0 size=    2686kB time=00:00:13.50 bitrate=1629.7kbits/s speed=0.405x    frame=  369 fps= 11 q=54.0 size=    2686kB time=00:00:14.00 bitrate=1571.5kbits/s speed=0.413x    frame=  377 fps= 11 q=53.0 size=    2686kB time=00:00:14.33 bitrate=1535.0kbits/s speed=0.417x    frame=  385 fps= 11 q=53.0 size=    2686kB time=00:00:14.66 bitrate=1500.1kbits/s speed=0.418x    frame=  397 fps= 11 q=52.0 size=    3114kB time=00:00:15.16 bitrate=1681.7kbits/s speed=0.426x    frame=  405 fps= 11 q=52.0 size=    3114kB time=00:00:15.50 bitrate=1645.6kbits/s speed=0.428x    frame=  414 fps= 11 q=52.0 size=    3114kB time=00:00:15.87 bitrate=1606.7kbits/s speed=0.433x    frame=  423 fps= 11 q=52.0 size=    3114kB time=00:00:16.25 bitrate=1569.7kbits/s speed=0.437x    frame=  430 fps= 11 q=52.0 size=    3114kB time=00:00:16.54 bitrate=1542.0kbits/s speed=0.439x    frame=  440 fps= 11 q=52.0 size=    3114kB time=00:00:16.95 bitrate=1504.1kbits/s speed=0.443x    frame=  450 fps= 12 q=52.0 size=    3582kB time=00:00:17.37 bitrate=1689.0kbits/s speed=0.445x    frame=  461 fps= 12 q=52.0 size=    3582kB time=00:00:17.83 bitrate=1645.6kbits/s speed=0.45x    frame=  471 fps= 12 q=52.0 size=    3582kB time=00:00:18.25 bitrate=1608.0kbits/s speed=0.454x    frame=  481 fps= 12 q=51.0 size=    3582kB time=00:00:18.66 bitrate=1572.1kbits/s speed=0.457x    frame=  490 fps= 12 q=51.0 size=    3582kB time=00:00:19.04 bitrate=1541.1kbits/s speed=0.461x    frame=  500 fps= 12 q=51.0 size=    3582kB time=00:00:19.45 bitrate=1508.2kbits/s speed=0.465x    frame=  500 fps= 12 q=-1.0 Lsize=    4172kB time=00:00:20.70 bitrate=1650.5kbits/s speed=0.485x    
video:4168kB audio:0kB subtitle:0kB other streams:0kB global headers:0kB muxing overhead: 0.106490%
bench: utime=92.108s
bench: maxrss=1112728kB
[libx264 @ 0x34641c0] frame I:8     Avg QP:45.54  size: 24040
[libx264 @ 0x34641c0] frame P:269   Avg QP:49.72  size:  9845
[libx264 @ 0x34641c0] frame B:223   Avg QP:48.84  size:  6398
[libx264 @ 0x34641c0] consecutive B-frames: 37.0%  8.4%  6.6% 48.0%
[libx264 @ 0x34641c0] mb I  I16..4: 64.7% 35.2%  0.1%
[libx264 @ 0x34641c0] mb P  I16..4: 22.4% 10.1%  0.0%  P16..4:  3.9%  0.2%  0.0%  0.0%  0.0%    skip:63.2%
[libx264 @ 0x34641c0] mb B  I16..4:  2.8%  1.8%  0.0%  B16..8:  9.1%  0.1%  0.0%  direct: 2.0%  skip:84.1%  L0:47.3% L1:51.6% BI: 1.1%
[libx264 @ 0x34641c0] final ratefactor: 49.00
[libx264 @ 0x34641c0] 8x8 transform intra:32.2% inter:96.5%
[libx264 @ 0x34641c0] coded y,uvDC,uvAC intra: 4.8% 15.4% 0.0% inter: 0.3% 1.4% 0.0%
[libx264 @ 0x34641c0] i16 v,h,dc,p: 68% 22%  7%  2%
[libx264 @ 0x34641c0] i8 v,h,dc,ddl,ddr,vr,hd,vl,hu:  5% 13% 77%  1%  1%  1%  1%  1%  1%
[libx264 @ 0x34641c0] i4 v,h,dc,ddl,ddr,vr,hd,vl,hu: 33% 21% 15%  6%  5%  5%  4%  5%  5%
[libx264 @ 0x34641c0] i8c dc,h,v,p: 98%  1%  1%  0%
[libx264 @ 0x34641c0] Weighted P-Frames: Y:0.7% UV:0.0%
[libx264 @ 0x34641c0] ref P L0: 50.4% 49.6%
[libx264 @ 0x34641c0] ref B L0: 77.2% 22.8%
[libx264 @ 0x34641c0] ref B L1: 93.9%  6.1%
[libx264 @ 0x34641c0] kb/s:1638.65
